# xmcd
#
# Track frame offsets: 
#        150
#        21137
#        43180
#        60652
#        80007
#        95427
#        123252
#        143165
#        157502
#        184805
#        207350
#        219972
#        230275
#        243927
#        255085
#        266917
#        285612
#        299325
#
# Disc length: 4360 seconds
#
# Revision: 4
# Processed by: cddbd v1.5.2PL0 Copyright (c) Steve Scherf et al.
# Submitted via: ExactAudioCopyFreeDBPlugin 1.0
#
DISCID=f9110612
DTITLE=Screamin' Jay Hawkins - Best Of The Bizarre Sessions 1990-1994
DYEAR=2000
DGENRE=Blues
TTITLE0=Swamp Gas
TTITLE1=Voodoo Priestess
TTITLE2=Brujo
TTITLE3=I Am The Cool
TTITLE4=Ice Cream Man
TTITLE5=Fourteen Wives
TTITLE6=Heart Attack and Vine
TTITLE7=Somethin' Funny Going' On
TTITLE8=Ignant and Shit
TTITLE9=Shut Your Mouth When You Sneeze (Previously Unreleased)
TTITLE10=You Make Me Sick
TTITLE11=Just for You (Previously Unreleased)
TTITLE12=Give It A Break
TTITLE13=Stone Crazy
TTITLE14=Make You Mine (Previously Unreleased)
TTITLE15=I Want Your Body
TTITLE16=Upsettin' Me (Previously Unreleased)
TTITLE17=Ol' Man River
EXTD=\n YEAR: 2000
EXTT0=
EXTT1=
EXTT2=
EXTT3=
EXTT4=
EXTT5=
EXTT6=
EXTT7=
EXTT8=
EXTT9=
EXTT10=
EXTT11=
EXTT12=
EXTT13=
EXTT14=
EXTT15=
EXTT16=
EXTT17=
PLAYORDER=
